<?xml version="1.0" encoding="UTF-8"?>
<svg version="1.1" xmlns="http://www.w3.org/2000/svg" width="736" height="552">
<path d="M0 0 C5.9229706 3.66709741 11.89817041 7.2458002 17.875 10.82421875 C18.9580542 11.47318115 20.0411084 12.12214355 21.15698242 12.79077148 C23.24560774 14.04209735 25.33438672 15.29316676 27.42333984 16.54394531 C30.84601471 18.59355983 34.26697807 20.64601419 37.6875 22.69921875 C38.83331864 23.38674323 39.97915262 24.07424216 41.125 24.76171875 C52.22526042 31.421875 63.32552083 38.08203125 74.42578125 44.7421875 C75.03059326 45.10505859 75.63540527 45.46792969 76.25854492 45.84179688 C77.42152552 46.53961785 78.58444851 47.23753485 79.74731445 47.93554688 C83.01506618 49.89683234 86.28422113 51.85574414 89.5546875 53.8125 C98.90576728 59.41098355 108.23396078 65.04583639 117.54489136 70.71078491 C127.24893525 76.61470263 136.97348975 82.47638846 146.78125 88.20703125 C150.39362628 90.31977426 153.98839966 92.4585383 157.56640625 94.62890625 C159.73039244 95.92536296 161.90558516 97.19533931 164.08984375 98.45703125 C165.11924072 99.05825806 165.11924072 99.05825806 166.16943359 99.67163086 C167.53411439 100.46862878 168.9028309 101.2587647 170.27587891 102.04125977 C175.07476968 104.8610278 175.07476968 104.8610278 176.1875 108.19921875 C154.95887038 109.03766042 133.74451973 109.30865293 112.5 109.32421875 C110.73765015 109.32796509 110.73765015 109.32796509 108.93969727 109.33178711 C96.6128842 109.35328187 84.28686768 109.27373257 71.96484375 108.91015625 C70.99033768 108.89236115 70.0158316 108.87456604 69.01179504 108.85623169 C61.47261796 108.58247437 55.90928241 106.70425297 49.70703125 102.26171875 C46.0559772 99.74694899 42.31172659 97.41768262 38.51171875 95.13671875 C37.91360886 94.77747818 37.31549896 94.41823761 36.69926453 94.04811096 C35.46508209 93.30711832 34.2307819 92.56632177 32.99636841 91.82571411 C29.91883193 89.97314967 26.85411391 88.09968568 23.7890625 86.2265625 C13.33642997 79.84452905 2.82677936 73.56503354 -7.73876953 67.37182617 C-18.47855141 61.0629645 -29.13932958 54.61984809 -39.8125 48.19921875 C-39.9256958 48.86477783 -40.0388916 49.53033691 -40.15551758 50.21606445 C-40.96182055 53.87723726 -42.12485849 57.38351611 -43.32421875 60.9296875 C-43.5749263 61.67898026 -43.82563385 62.42827301 -44.0839386 63.20027161 C-44.88646629 65.59671255 -45.69312932 67.99173701 -46.5 70.38671875 C-47.0230668 71.94586952 -47.5458556 73.50511358 -48.06835938 75.06445312 C-48.85180569 77.40228427 -49.63593872 79.73987038 -50.4225769 82.07662964 C-51.79851442 86.16478184 -53.16320204 90.25623405 -54.51025391 94.35400391 C-54.78440628 95.18539383 -55.05855865 96.01678375 -55.34101868 96.87336731 C-55.86724411 98.47077064 -56.3910887 100.06896071 -56.91227722 101.66801453 C-58.70082153 107.08754028 -58.70082153 107.08754028 -59.8125 108.19921875 C-61.77619153 108.29322545 -63.74329199 108.31665256 -65.70922852 108.31274414 C-66.97046036 108.31266861 -68.2316922 108.31259308 -69.53114319 108.31251526 C-70.91789794 108.30740785 -72.30465229 108.30219184 -73.69140625 108.296875 C-75.10245209 108.29501076 -76.51349857 108.29358689 -77.92454529 108.29258728 C-81.64490535 108.28876254 -85.3652266 108.27893265 -89.08557129 108.2678833 C-92.87930781 108.25766823 -96.67305058 108.25308946 -100.46679688 108.24804688 C-107.91538231 108.23731033 -115.36393572 108.22023445 -122.8125 108.19921875 C-122.22766164 103.32401238 -121.22216637 98.90178938 -119.6953125 94.23828125 C-119.48246613 93.58311523 -119.26961975 92.92794922 -119.05032349 92.25292969 C-118.35177833 90.10810532 -117.64484872 87.96615428 -116.9375 85.82421875 C-116.44330203 84.31441563 -115.94949336 82.80448504 -115.45605469 81.29443359 C-114.17209273 77.37199185 -112.87996659 73.45229768 -111.58435059 69.53369141 C-110.83165313 67.25714766 -110.08025931 64.98017718 -109.32910156 62.703125 C-106.79418928 55.02475359 -104.24128128 47.35269176 -101.65910339 39.69007874 C-100.35191129 35.81069912 -99.06065981 31.92639508 -97.77734375 28.0390625 C-94.94049246 19.54670816 -92.1920352 11.47826638 -86.8125 4.19921875 C-86.14154297 3.25949219 -86.14154297 3.25949219 -85.45703125 2.30078125 C-77.92195622 -7.36606571 -65.30108825 -14.29307915 -53.3125 -16.51953125 C-32.25895838 -18.88805468 -17.29295004 -10.7178127 0 0 Z " fill="#F3F3F3" transform="translate(341.8125,260.80078125)"/>
<path d="M0 0 C1.26794525 -0.00146167 1.26794525 -0.00146167 2.56150556 -0.00295287 C3.96252959 0.00316009 3.96252959 0.00316009 5.39185715 0.00939655 C6.38007485 0.00980342 7.36829256 0.01021028 8.38645625 0.01062948 C11.71956057 0.01334084 15.05260284 0.02336403 18.3856926 0.03339863 C20.76718213 0.0369926 23.14867227 0.04019799 25.53016281 0.04304218 C32.69596606 0.05342111 39.86173371 0.07253796 47.02751267 0.09330294 C50.40480584 0.10288754 53.78210157 0.11146016 57.15939713 0.12015438 C68.3936827 0.14947179 79.62795696 0.18128323 90.86221313 0.22037506 C93.77889373 0.23049513 96.69557435 0.24060656 99.6122551 0.25068378 C100.33716175 0.25319066 101.06206841 0.25569753 101.80894193 0.25828037 C113.52962791 0.29835478 125.25028271 0.32158584 136.97102371 0.33766242 C149.01488975 0.35445121 161.0586437 0.38621866 173.10243297 0.43254644 C179.86013648 0.45817739 186.61772159 0.47741028 193.37547684 0.47992229 C199.74163206 0.48308709 206.10744942 0.50519123 212.4734993 0.54147816 C214.80258378 0.55154622 217.13170879 0.55494108 219.46081161 0.55094814 C239.55564356 0.52311504 255.14419326 2.51016131 270.23237228 16.99360371 C272.98237228 19.8090799 272.98237228 19.8090799 272.98237228 22.11860371 C273.64237228 22.11860371 274.30237228 22.11860371 274.98237228 22.11860371 C284.22993815 38.78955807 287.17911874 53.59572121 281.98237228 72.11860371 C279.84253653 79.02941297 277.42577129 85.85063566 275.04487228 92.68110371 C274.10846838 95.38812704 273.17390987 98.09578237 272.23954391 100.80350971 C271.63953189 102.53952409 271.03770309 104.27491175 270.43394089 106.00962543 C269.16024141 109.67311204 267.89882426 113.33688038 266.72016525 117.03217793 C266.37227951 118.12159687 266.02439377 119.21101582 265.66596603 120.33344746 C265.38164719 121.25117939 265.09732834 122.16891132 264.80439377 123.11445332 C263.98237228 125.11860371 263.98237228 125.11860371 261.98237228 126.11860371 C260.01130684 126.20997031 258.03709312 126.23612338 256.06391525 126.2321291 C254.82277969 126.23205357 253.58164413 126.23197803 252.30289841 126.23190022 C250.9434518 126.22679321 249.58400559 126.22157721 248.22455978 126.21625996 C246.83736344 126.21439513 245.45016644 126.21297153 244.06296921 126.21197224 C240.41002716 126.20815218 236.75712481 126.19832626 233.10419846 126.18726826 C229.37739728 126.17704314 225.65058969 126.17247226 221.92377853 126.16743183 C214.60995835 126.15670354 207.29617087 126.13963325 199.98237228 126.11860371 C200.58701479 120.75404692 201.85172105 115.97437976 203.59955978 110.87641621 C203.85738235 110.10860828 204.11520493 109.34080036 204.3808403 108.54972553 C205.20068851 106.11239836 206.02884006 103.67799082 206.85737228 101.24360371 C207.4061086 99.61749023 207.9542906 97.99118959 208.50190353 96.36469746 C209.51653694 93.35326733 210.53451063 90.34301182 211.55610275 87.33393574 C212.82965898 83.57926315 214.08487318 79.81865011 215.33477402 76.05604267 C216.33978358 73.04932571 217.38574488 70.05664519 218.43159103 67.06391621 C219.11858414 64.97447861 219.11858414 64.97447861 218.98237228 62.11860371 C208.6379562 62.22618122 198.29360895 62.33883009 187.94931889 62.45794296 C183.14598789 62.51309342 178.34265072 62.56650074 173.53925705 62.61591816 C168.90322471 62.663678 164.26726472 62.71602484 159.63131905 62.77154446 C157.86312984 62.79191541 156.09492083 62.81063704 154.3266964 62.82767773 C151.84897464 62.85183843 149.37138831 62.88187666 146.89374924 62.91328144 C146.16366653 62.9190369 145.43358383 62.92479237 144.68137741 62.93072224 C140.9889525 62.98387544 137.58075219 63.30024794 133.98237228 64.11860371 C97.52133278 65.99413915 97.52133278 65.99413915 82.09370041 55.50727558 C77.6344536 52.57432046 73.00718119 49.90730222 68.41987228 47.18110371 C61.45342797 43.01405555 54.49680259 38.831685 47.56049728 34.61469746 C46.63316536 34.05094158 46.63316536 34.05094158 45.68709946 33.4757967 C42.69837211 31.65814573 39.71074937 29.83870204 36.72431564 28.01728535 C24.80448608 20.13326999 24.80448608 20.13326999 11.98237228 14.11860371 C11.98237228 13.45860371 11.98237228 12.79860371 11.98237228 12.11860371 C11.27467697 11.84918964 10.56698166 11.57977558 9.83784103 11.30219746 C6.88650209 10.07886544 4.11014289 8.69051891 1.29487228 7.18110371 C0.3422551 6.67708027 -0.61036209 6.17305683 -1.59184647 5.65375996 C-4.01762772 4.11860371 -4.01762772 4.11860371 -6.01762772 1.11860371 C-3.74511945 -0.01765042 -2.52245121 -0.0042996 0 0 Z " fill="#F9F9F9" transform="translate(223.01762771606445,181.88139629364014)"/>
<path d="M0 0 C42.9 0 85.8 0 130 0 C127 13 127 13 124 17 C124.13277344 16.41992188 124.26554687 15.83984375 124.40234375 15.2421875 C124.57894531 14.46101563 124.75554687 13.67984375 124.9375 12.875 C125.11152344 12.10929688 125.28554688 11.34359375 125.46484375 10.5546875 C126.05979961 7.71453324 126.52969738 4.86316101 127 2 C116.65558392 2.10757751 106.31123667 2.22022638 95.9669466 2.33933926 C91.16361561 2.39448971 86.36027844 2.44789703 81.55688477 2.49731445 C76.92085243 2.5450743 72.28489244 2.59742113 67.64894676 2.65294075 C65.88075756 2.67331171 64.11254855 2.69203334 62.34432411 2.70907402 C59.86660235 2.73323472 57.38901602 2.76327295 54.91137695 2.79467773 C54.18129425 2.8004332 53.45121155 2.80618866 52.69900513 2.81211853 C49.00658022 2.86527173 45.5983799 3.18164423 42 4 C37.69003989 4.22170193 33.37765044 4.19042236 29.0625 4.1875 C27.24709717 4.1862915 27.24709717 4.1862915 25.39501953 4.18505859 C8.22300918 4.06736305 8.22300918 4.06736305 1 2 C0.67 1.34 0.34 0.68 0 0 Z " fill="#030303" transform="translate(315,242)"/>
<path d="M0 0 C1.27627068 0.00131347 1.27627068 0.00131347 2.57832462 0.00265348 C3.51847972 0.00877515 4.45863482 0.01489682 5.42727947 0.02120399 C6.42184727 0.02372756 7.41641507 0.02625112 8.44112128 0.02885115 C11.79524075 0.0386231 15.14928486 0.05565075 18.50337505 0.07262611 C20.89946633 0.08112789 23.29555917 0.08919991 25.69165325 0.09687233 C31.53782622 0.11681042 37.38396773 0.14149836 43.2301114 0.16847537 C47.98163602 0.19030115 52.73316506 0.21015538 57.48470402 0.22859001 C58.16017757 0.23121214 58.83565111 0.23383427 59.53159356 0.23653585 C60.90370982 0.24185336 62.27582609 0.24716615 63.64794239 0.25247426 C76.52709777 0.30252848 89.40622062 0.35875026 102.28534081 0.41708 C113.3374951 0.46699442 124.38966038 0.511715 135.44185162 0.55260658 C148.26928165 0.60006914 161.09669262 0.65070342 173.92408961 0.70643198 C175.29216427 0.71236723 176.66023894 0.71829858 178.02831364 0.724226 C179.03803769 0.72860358 179.03803769 0.72860358 180.06816021 0.73306959 C184.8127367 0.7534222 189.55731875 0.77151152 194.30190754 0.78873253 C200.69007242 0.81198952 207.0782013 0.84045072 213.46632862 0.87242126 C215.81371875 0.88338482 218.16111737 0.89267408 220.50852108 0.90018463 C223.70779932 0.91069202 226.90699138 0.9272076 230.10623455 0.94527626 C231.03969749 0.94693649 231.97316043 0.94859671 232.93491012 0.95030725 C237.06837855 0.9796288 240.92730108 1.06293458 244.95723248 2.11022377 C244.95723248 2.44022377 244.95723248 2.77022377 244.95723248 3.11022377 C163.44723248 2.78022377 81.93723248 2.45022377 -2.04276752 2.11022377 C-2.04276752 2.77022377 -2.04276752 3.43022377 -2.04276752 4.11022377 C-1.38276752 4.44022377 -0.72276752 4.77022377 -0.04276752 5.11022377 C-1.91776752 4.79772377 -1.91776752 4.79772377 -4.04276752 4.11022377 C-4.70276752 3.12022377 -5.36276752 2.13022377 -6.04276752 1.11022377 C-3.7618633 -0.03022834 -2.53255742 -0.00987082 0 0 Z " fill="#4C4C4C" transform="translate(223.04276752471924,181.8897762298584)"/>
<path d="M0 0 C42.24 0 84.48 0 128 0 C125 13 125 13 122 17 C122.13277344 16.41992188 122.26554687 15.83984375 122.40234375 15.2421875 C122.57894531 14.46101563 122.75554687 13.67984375 122.9375 12.875 C123.11152344 12.10929688 123.28554688 11.34359375 123.46484375 10.5546875 C124.05883848 7.71912141 124.52371753 4.85769484 125 2 C83.75 1.67 42.5 1.34 0 1 C0 0.67 0 0.34 0 0 Z " fill="#686868" transform="translate(317,242)"/>
<path d="M0 0 C1.06503769 0.24260512 1.06503769 0.24260512 2.1515913 0.49011135 C5.0228247 1.00408581 7.65986611 1.13865682 10.57453918 1.15821838 C11.68366669 1.1680072 12.79279419 1.17779602 13.93553162 1.18788147 C15.74598717 1.19651466 15.74598717 1.19651466 17.59301758 1.20532227 C18.87146545 1.21522186 20.14991333 1.22512146 21.46710205 1.23532104 C24.9646085 1.26229512 28.46212833 1.28334513 31.9596808 1.30332303 C35.61789515 1.32522898 39.27606858 1.35259507 42.93424988 1.37937927 C49.85788255 1.42924394 56.78153802 1.4742058 63.70521516 1.51740164 C71.58912587 1.5668273 79.47299552 1.62172563 87.35686648 1.67708123 C103.57120643 1.79080568 119.78558408 1.89766539 136 2 C135.67 4.31 135.34 6.62 135 9 C133.875 5.25 133.875 5.25 135 3 C134.32247272 3.00276538 133.64494543 3.00553076 132.94688702 3.00837994 C116.4724273 3.07459023 99.99800965 3.12425638 83.52344799 3.15543652 C75.55651768 3.17091521 67.5896761 3.19202376 59.62280273 3.22631836 C52.68007309 3.25619017 45.73740769 3.27556771 38.79461557 3.28226548 C35.11734682 3.28618154 31.4402619 3.29540535 27.76305199 3.31719017 C23.66120574 3.34129426 19.55968047 3.34197143 15.45776367 3.34057617 C14.23425201 3.351362 13.01074036 3.36214783 11.75015259 3.3732605 C10.63536026 3.36913651 9.52056793 3.36501251 8.37199402 3.36076355 C7.40134601 3.36352893 6.43069799 3.36629431 5.43063641 3.36914349 C2.61212037 2.94109228 1.73632926 2.2034295 0 0 Z " fill="#DEDEDE" transform="translate(310,239)"/>
<path d="M0 0 C0.33 0 0.66 0 1 0 C0.41368137 7.6221422 -1.56794346 15.13588691 -5 22 C-4.00484375 21.96970703 -3.0096875 21.93941406 -1.984375 21.90820312 C17.34868177 21.325498 36.65604663 20.82779863 56 21 C56.14493896 20.39317383 56.28987793 19.78634766 56.43920898 19.16113281 C57.10692748 16.58793121 58.05871899 14.21088248 59.0625 11.75 C59.42472656 10.85796875 59.78695312 9.9659375 60.16015625 9.046875 C60.57587891 8.03367187 60.57587891 8.03367187 61 7 C62.2720853 10.8162559 61.47128403 12.35983836 60.1875 16.125 C59.83042969 17.20007813 59.47335937 18.27515625 59.10546875 19.3828125 C58 22 58 22 56 23 C54.02893455 23.0913666 52.05472084 23.11751968 50.08154297 23.11352539 C48.84040741 23.11344986 47.59927185 23.11337433 46.32052612 23.11329651 C44.96107951 23.1081895 43.60163331 23.1029735 42.2421875 23.09765625 C40.85499116 23.09579142 39.46779416 23.09436782 38.08059692 23.09336853 C34.42765488 23.08954848 30.77475252 23.07972255 27.12182617 23.06866455 C23.39502499 23.05843944 19.66821741 23.05386855 15.94140625 23.04882812 C8.62758606 23.03809983 1.31379859 23.02102954 -6 23 C-5.49751717 19.17588369 -4.99317503 15.4916456 -3.80859375 11.81640625 C-3.58623047 11.11708984 -3.36386719 10.41777344 -3.13476562 9.69726562 C-2.78961914 8.64055664 -2.78961914 8.64055664 -2.4375 7.5625 C-2.20353516 6.83095703 -1.96957031 6.09941406 -1.72851562 5.34570312 C-1.15732778 3.56219821 -0.57936877 1.78086417 0 0 Z " fill="#111111" transform="translate(429,285)"/>
<path d="M0 0 C1.3171701 0.01441132 1.3171701 0.01441132 2.66094971 0.02911377 C5.57206059 0.06217329 8.48302465 0.1024791 11.39404297 0.14282227 C13.40900144 0.16711659 15.42396539 0.19096049 17.43893433 0.21437073 C22.74906643 0.2772801 28.05910189 0.34632731 33.36914062 0.41662598 C38.78494861 0.48724759 44.20082527 0.55210147 49.61669922 0.61743164 C60.2482851 0.74653229 70.87977783 0.88211318 81.51123047 1.02172852 C81.51123047 1.35172852 81.51123047 1.68172852 81.51123047 2.02172852 C52.47123047 2.02172852 23.43123047 2.02172852 -6.48876953 2.02172852 C-6.48876953 2.68172852 -6.48876953 3.34172852 -6.48876953 4.02172852 C-5.82876953 4.35172852 -5.16876953 4.68172852 -4.48876953 5.02172852 C-6.36376953 4.70922852 -6.36376953 4.70922852 -8.48876953 4.02172852 C-9.14876953 3.03172852 -9.80876953 2.04172852 -10.48876953 1.02172852 C-7.21251786 -0.61639732 -3.59631594 -0.05579974 0 0 Z " fill="#4C4C4C" transform="translate(227.48876953125,181.978271484375)"/>
<path d="M0 0 C1.08333427 3.25000281 0.92291149 5.05324123 -0.25 8.25 C-0.50265625 8.95640625 -0.7553125 9.6628125 -1.015625 10.390625 C-1.50289062 11.68226563 -1.50289062 11.68226563 -2 13 C-2.99 15.64 -3.98 18.28 -5 21 C15.46 21 35.92 21 57 21 C57 21.33 57 21.66 57 22 C36.21 22 15.42 22 -6 22 C-4.875 14.125 -4.875 14.125 -3.80859375 11.03515625 C-3.58623047 10.38095703 -3.36386719 9.72675781 -3.13476562 9.05273438 C-2.90466797 8.39595703 -2.67457031 7.73917969 -2.4375 7.0625 C-2.20353516 6.37865234 -1.96957031 5.69480469 -1.72851562 4.99023438 C-1.15788171 3.32491499 -0.57972902 1.66217507 0 0 Z " fill="#414141" transform="translate(225,347)"/>
<path d="M0 0 C1.2720853 3.8162559 0.47128403 5.35983836 -0.8125 9.125 C-1.16957031 10.20007813 -1.52664063 11.27515625 -1.89453125 12.3828125 C-3 15 -3 15 -5 16 C-13.03400363 16.40229179 -21.0170417 15.8958831 -29 15 C-29 14.67 -29 14.34 -29 14 C-21.08 14 -13.16 14 -5 14 C-4.67 12.68 -4.34 11.36 -4 10 C-3.33631343 8.24083077 -2.64762161 6.49094329 -1.9375 4.75 C-1.57527344 3.85796875 -1.21304687 2.9659375 -0.83984375 2.046875 C-0.56269531 1.37140625 -0.28554688 0.6959375 0 0 Z " fill="#6A6A6A" transform="translate(490,292)"/>
<path d="M0 0 C13.2 0 26.4 0 40 0 C37 13 37 13 34 17 C34.13277344 16.41992188 34.26554687 15.83984375 34.40234375 15.2421875 C34.57894531 14.46101563 34.75554687 13.67984375 34.9375 12.875 C35.11152344 12.10929688 35.28554688 11.34359375 35.46484375 10.5546875 C36.05883848 7.71912141 36.52371753 4.85769484 37 2 C18.685 1.505 18.685 1.505 0 1 C0 0.67 0 0.34 0 0 Z " fill="#585858" transform="translate(405,242)"/>
<path d="M0 0 C0 0.66 0 1.32 0 2 C-0.99 2 -1.98 2 -3 2 C-3.66 3.65 -4.32 5.3 -5 7 C-5.66 7 -6.32 7 -7 7 C-7.33 7.66 -7.66 8.32 -8 9 C-8.66 8.67 -9.32 8.34 -10 8 C-10 8.66 -10 9.32 -10 10 C-11.75 11.5078125 -11.75 11.5078125 -14 13.125 C-14.7425 13.66382813 -15.485 14.20265625 -16.25 14.7578125 C-16.8275 15.16773438 -17.405 15.57765625 -18 16 C-14.95253073 9.76056939 -7.71974292 0 0 0 Z " fill="#717171" transform="translate(273,251)"/>
<path d="M0 0 C1.81757813 0.07250977 1.81757813 0.07250977 3.671875 0.14648438 C5.57839844 0.2305957 5.57839844 0.2305957 7.5234375 0.31640625 C9.4415625 0.3947168 9.4415625 0.3947168 11.3984375 0.47460938 C14.5653345 0.60459395 17.73194037 0.73957027 20.8984375 0.87890625 C20.8984375 1.20890625 20.8984375 1.53890625 20.8984375 1.87890625 C12.6484375 1.87890625 4.3984375 1.87890625 -4.1015625 1.87890625 C-4.1015625 2.53890625 -4.1015625 3.19890625 -4.1015625 3.87890625 C-3.4415625 4.20890625 -2.7815625 4.53890625 -2.1015625 4.87890625 C-3.9765625 4.56640625 -3.9765625 4.56640625 -6.1015625 3.87890625 C-6.7615625 2.88890625 -7.4215625 1.89890625 -8.1015625 0.87890625 C-5.30455758 -0.51959621 -3.12040891 -0.13123215 0 0 Z " fill="#2C2C2C" transform="translate(225.1015625,182.12109375)"/>
<path d="M0 0 C0.66 0 1.32 0 2 0 C0.9318153 5.11365014 -0.23107476 10.07227969 -2 15 C-2.33 15 -2.66 15 -3 15 C-3 12.36 -3 9.72 -3 7 C-2.34 7 -1.68 7 -1 7 C-1.020625 6.030625 -1.04125 5.06125 -1.0625 4.0625 C-1 1 -1 1 0 0 Z " fill="#5B5B5B" transform="translate(290,338)"/>
<path d="M0 0 C3.73487777 0.4979837 5.81237635 0.87491756 9 3 C9 3.66 9 4.32 9 5 C5.22454612 3.90931332 2.52956528 3.0916909 0 0 Z " fill="#707070" transform="translate(273,217)"/>
</svg>
